<svg xmlns="http://www.w3.org/2000/svg" width="72" height="92" viewBox="0 0 72 92" version="1.1"><path d="M 62 72.500 C 62 72.775, 62.225 73, 62.500 73 C 62.775 73, 63 72.775, 63 72.500 C 63 72.225, 62.775 72, 62.500 72 C 62.225 72, 62 72.225, 62 72.500 M 10.511 79.691 C 4.523 80.114, 4.523 80.114, 13.284 84.015 C 22.008 87.899, 22.103 87.916, 35.773 88.049 C 49.500 88.182, 49.500 88.182, 57.947 84.091 C 66.394 80, 66.394 80, 48.447 79.972 C 38.576 79.957, 27.350 79.792, 23.500 79.607 C 19.650 79.421, 13.805 79.459, 10.511 79.691 M 12.500 82 C 12.882 82.618, 21.657 83, 35.500 83 C 49.343 83, 58.118 82.618, 58.500 82 C 58.905 81.344, 50.991 81, 35.500 81 C 20.009 81, 12.095 81.344, 12.500 82" stroke="none" fill="#2a2c91" fill-rule="evenodd"/><path d="M 33.500 3.399 C 27.515 6.248, 21.616 11.872, 18.777 17.437 C 16.085 22.713, 14.193 30.955, 14.770 34.889 C 15.022 36.600, 14.804 38, 14.288 38 C 12.809 38, 9.250 33.794, 7.941 30.500 C 6.749 27.500, 6.749 27.500, 4.428 32.500 C -1.672 45.643, -0.367 62.275, 7.583 72.697 C 12.004 78.494, 14.317 79.098, 34.494 79.727 C 51.822 80.266, 52.962 80.187, 56.156 78.213 C 64.946 72.780, 67.105 67.768, 68.083 50.521 C 68.520 42.810, 69.194 35.443, 69.582 34.151 C 70.275 31.837, 70.241 31.824, 67.319 33.335 C 65.687 34.179, 63.073 36.802, 61.510 39.165 C 58.667 43.460, 58.667 43.460, 57.373 37.114 C 56.010 30.434, 54.848 28.176, 49.192 21.222 C 45.713 16.943, 45.713 16.943, 43.805 20.080 C 41.960 23.114, 41.833 23.159, 39.940 21.446 C 38.864 20.472, 37.481 17.998, 36.867 15.949 C 35.886 12.675, 36.061 11.545, 38.320 6.612 C 41.246 0.220, 40.802 -0.076, 33.500 3.399" stroke="none" fill="#0050a3" fill-rule="evenodd"/></svg>